<?xml version="1.0" encoding="utf-8" standalone="no"?>
<!DOCTYPE svg PUBLIC "-//W3C//DTD SVG 1.1//EN"
  "http://www.w3.org/Graphics/SVG/1.1/DTD/svg11.dtd">
<svg xmlns:xlink="http://www.w3.org/1999/xlink" width="1432.8pt" height="856.8pt" viewBox="0 0 1432.8 856.8" xmlns="http://www.w3.org/2000/svg" version="1.1">
 <metadata>
  <rdf:RDF xmlns:dc="http://purl.org/dc/elements/1.1/" xmlns:cc="http://creativecommons.org/ns#" xmlns:rdf="http://www.w3.org/1999/02/22-rdf-syntax-ns#">
   <cc:Work>
    <dc:type rdf:resource="http://purl.org/dc/dcmitype/StillImage"/>
    <dc:date>2025-12-01T16:51:49.439691</dc:date>
    <dc:format>image/svg+xml</dc:format>
    <dc:creator>
     <cc:Agent>
      <dc:title>Matplotlib v3.8.4, https://matplotlib.org/</dc:title>
     </cc:Agent>
    </dc:creator>
   </cc:Work>
  </rdf:RDF>
 </metadata>
 <defs>
  <style type="text/css">*{stroke-linejoin: round; stroke-linecap: butt}</style>
 </defs>
 <g id="figure_1">
  <g id="patch_1">
   <path d="M 0 856.8 
L 1432.8 856.8 
L 1432.8 0 
L 0 0 
z
" style="fill: #ffffff"/>
  </g>
  <g id="axes_1">
   <g id="patch_2">
    <path d="M 149.04 323.1 
L 361.8 323.1 
L 361.8 165.15 
L 149.04 165.15 
z
" clip-path="url(#pc99f17d7af)" style="fill: #b3d1e6; stroke: #000000; stroke-width: 4; stroke-linejoin: miter"/>
   </g>
   <g id="patch_3">
    <path d="M 432.72 323.1 
L 645.48 323.1 
L 645.48 165.15 
L 432.72 165.15 
z
" clip-path="url(#pc99f17d7af)" style="fill: #6699cc; stroke: #000000; stroke-width: 4; stroke-linejoin: miter"/>
   </g>
   <g id="patch_4">
    <path d="M 716.4 323.1 
L 929.16 323.1 
L 929.16 165.15 
L 716.4 165.15 
z
" clip-path="url(#pc99f17d7af)" style="fill: #ffe599; stroke: #000000; stroke-width: 4; stroke-linejoin: miter"/>
   </g>
   <g id="patch_5">
    <path d="M 1000.08 323.1 
L 1212.84 323.1 
L 1212.84 165.15 
L 1000.08 165.15 
z
" clip-path="url(#pc99f17d7af)" style="fill: #0052a5; stroke: #000000; stroke-width: 4; stroke-linejoin: miter"/>
   </g>
   <g id="patch_6">
    <path d="M 716.4 639 
L 929.16 639 
L 929.16 481.05 
L 716.4 481.05 
z
" clip-path="url(#pc99f17d7af)" style="fill: #003c7d; stroke: #000000; stroke-width: 4; stroke-linejoin: miter"/>
   </g>
   <g id="patch_7">
    <path d="M 1000.08 639 
L 1212.84 639 
L 1212.84 481.05 
L 1000.08 481.05 
z
" clip-path="url(#pc99f17d7af)" style="fill: #002855; stroke: #000000; stroke-width: 4; stroke-linejoin: miter"/>
   </g>
   <g id="text_1">
    <!-- 6 Data Sources -->
    <g transform="translate(190.393594 229.278375) scale(0.18 -0.18)">
     <defs>
      <path id="Arial-BoldMT-36" d="M 3247 3459 
L 2397 3366 
Q 2366 3628 2234 3753 
Q 2103 3878 1894 3878 
Q 1616 3878 1423 3628 
Q 1231 3378 1181 2588 
Q 1509 2975 1997 2975 
Q 2547 2975 2939 2556 
Q 3331 2138 3331 1475 
Q 3331 772 2918 347 
Q 2506 -78 1859 -78 
Q 1166 -78 719 461 
Q 272 1000 272 2228 
Q 272 3488 737 4044 
Q 1203 4600 1947 4600 
Q 2469 4600 2811 4308 
Q 3153 4016 3247 3459 
z
M 1256 1544 
Q 1256 1116 1453 883 
Q 1650 650 1903 650 
Q 2147 650 2309 840 
Q 2472 1031 2472 1466 
Q 2472 1913 2297 2120 
Q 2122 2328 1859 2328 
Q 1606 2328 1431 2129 
Q 1256 1931 1256 1544 
z
" transform="scale(0.015625)"/>
      <path id="Arial-BoldMT-20" transform="scale(0.015625)"/>
      <path id="Arial-BoldMT-44" d="M 463 4581 
L 2153 4581 
Q 2725 4581 3025 4494 
Q 3428 4375 3715 4072 
Q 4003 3769 4153 3330 
Q 4303 2891 4303 2247 
Q 4303 1681 4163 1272 
Q 3991 772 3672 463 
Q 3431 228 3022 97 
Q 2716 0 2203 0 
L 463 0 
L 463 4581 
z
M 1388 3806 
L 1388 772 
L 2078 772 
Q 2466 772 2638 816 
Q 2863 872 3011 1006 
Q 3159 1141 3253 1448 
Q 3347 1756 3347 2288 
Q 3347 2819 3253 3103 
Q 3159 3388 2990 3547 
Q 2822 3706 2563 3763 
Q 2369 3806 1803 3806 
L 1388 3806 
z
" transform="scale(0.015625)"/>
      <path id="Arial-BoldMT-61" d="M 1116 2306 
L 319 2450 
Q 453 2931 781 3162 
Q 1109 3394 1756 3394 
Q 2344 3394 2631 3255 
Q 2919 3116 3036 2902 
Q 3153 2688 3153 2116 
L 3144 1091 
Q 3144 653 3186 445 
Q 3228 238 3344 0 
L 2475 0 
Q 2441 88 2391 259 
Q 2369 338 2359 363 
Q 2134 144 1878 34 
Q 1622 -75 1331 -75 
Q 819 -75 523 203 
Q 228 481 228 906 
Q 228 1188 362 1408 
Q 497 1628 739 1745 
Q 981 1863 1438 1950 
Q 2053 2066 2291 2166 
L 2291 2253 
Q 2291 2506 2166 2614 
Q 2041 2722 1694 2722 
Q 1459 2722 1328 2630 
Q 1197 2538 1116 2306 
z
M 2291 1594 
Q 2122 1538 1756 1459 
Q 1391 1381 1278 1306 
Q 1106 1184 1106 997 
Q 1106 813 1243 678 
Q 1381 544 1594 544 
Q 1831 544 2047 700 
Q 2206 819 2256 991 
Q 2291 1103 2291 1419 
L 2291 1594 
z
" transform="scale(0.015625)"/>
      <path id="Arial-BoldMT-74" d="M 1981 3319 
L 1981 2619 
L 1381 2619 
L 1381 1281 
Q 1381 875 1398 808 
Q 1416 741 1477 697 
Q 1538 653 1625 653 
Q 1747 653 1978 738 
L 2053 56 
Q 1747 -75 1359 -75 
Q 1122 -75 931 4 
Q 741 84 652 211 
Q 563 338 528 553 
Q 500 706 500 1172 
L 500 2619 
L 97 2619 
L 97 3319 
L 500 3319 
L 500 3978 
L 1381 4491 
L 1381 3319 
L 1981 3319 
z
" transform="scale(0.015625)"/>
      <path id="Arial-BoldMT-53" d="M 231 1491 
L 1131 1578 
Q 1213 1125 1461 912 
Q 1709 700 2131 700 
Q 2578 700 2804 889 
Q 3031 1078 3031 1331 
Q 3031 1494 2936 1608 
Q 2841 1722 2603 1806 
Q 2441 1863 1863 2006 
Q 1119 2191 819 2459 
Q 397 2838 397 3381 
Q 397 3731 595 4036 
Q 794 4341 1167 4500 
Q 1541 4659 2069 4659 
Q 2931 4659 3367 4281 
Q 3803 3903 3825 3272 
L 2900 3231 
Q 2841 3584 2645 3739 
Q 2450 3894 2059 3894 
Q 1656 3894 1428 3728 
Q 1281 3622 1281 3444 
Q 1281 3281 1419 3166 
Q 1594 3019 2269 2859 
Q 2944 2700 3267 2529 
Q 3591 2359 3773 2064 
Q 3956 1769 3956 1334 
Q 3956 941 3737 597 
Q 3519 253 3119 86 
Q 2719 -81 2122 -81 
Q 1253 -81 787 320 
Q 322 722 231 1491 
z
" transform="scale(0.015625)"/>
      <path id="Arial-BoldMT-6f" d="M 256 1706 
Q 256 2144 472 2553 
Q 688 2963 1083 3178 
Q 1478 3394 1966 3394 
Q 2719 3394 3200 2905 
Q 3681 2416 3681 1669 
Q 3681 916 3195 420 
Q 2709 -75 1972 -75 
Q 1516 -75 1102 131 
Q 688 338 472 736 
Q 256 1134 256 1706 
z
M 1156 1659 
Q 1156 1166 1390 903 
Q 1625 641 1969 641 
Q 2313 641 2545 903 
Q 2778 1166 2778 1666 
Q 2778 2153 2545 2415 
Q 2313 2678 1969 2678 
Q 1625 2678 1390 2415 
Q 1156 2153 1156 1659 
z
" transform="scale(0.015625)"/>
      <path id="Arial-BoldMT-75" d="M 2644 0 
L 2644 497 
Q 2463 231 2167 78 
Q 1872 -75 1544 -75 
Q 1209 -75 943 72 
Q 678 219 559 484 
Q 441 750 441 1219 
L 441 3319 
L 1319 3319 
L 1319 1794 
Q 1319 1094 1367 936 
Q 1416 778 1544 686 
Q 1672 594 1869 594 
Q 2094 594 2272 717 
Q 2450 841 2515 1023 
Q 2581 1206 2581 1919 
L 2581 3319 
L 3459 3319 
L 3459 0 
L 2644 0 
z
" transform="scale(0.015625)"/>
      <path id="Arial-BoldMT-72" d="M 1300 0 
L 422 0 
L 422 3319 
L 1238 3319 
L 1238 2847 
Q 1447 3181 1614 3287 
Q 1781 3394 1994 3394 
Q 2294 3394 2572 3228 
L 2300 2463 
Q 2078 2606 1888 2606 
Q 1703 2606 1575 2504 
Q 1447 2403 1373 2137 
Q 1300 1872 1300 1025 
L 1300 0 
z
" transform="scale(0.015625)"/>
      <path id="Arial-BoldMT-63" d="M 3353 2338 
L 2488 2181 
Q 2444 2441 2289 2572 
Q 2134 2703 1888 2703 
Q 1559 2703 1364 2476 
Q 1169 2250 1169 1719 
Q 1169 1128 1367 884 
Q 1566 641 1900 641 
Q 2150 641 2309 783 
Q 2469 925 2534 1272 
L 3397 1125 
Q 3263 531 2881 228 
Q 2500 -75 1859 -75 
Q 1131 -75 698 384 
Q 266 844 266 1656 
Q 266 2478 700 2936 
Q 1134 3394 1875 3394 
Q 2481 3394 2839 3133 
Q 3197 2872 3353 2338 
z
" transform="scale(0.015625)"/>
      <path id="Arial-BoldMT-65" d="M 2381 1056 
L 3256 909 
Q 3088 428 2723 176 
Q 2359 -75 1813 -75 
Q 947 -75 531 491 
Q 203 944 203 1634 
Q 203 2459 634 2926 
Q 1066 3394 1725 3394 
Q 2466 3394 2894 2905 
Q 3322 2416 3303 1406 
L 1103 1406 
Q 1113 1016 1316 798 
Q 1519 581 1822 581 
Q 2028 581 2168 693 
Q 2309 806 2381 1056 
z
M 2431 1944 
Q 2422 2325 2234 2523 
Q 2047 2722 1778 2722 
Q 1491 2722 1303 2513 
Q 1116 2303 1119 1944 
L 2431 1944 
z
" transform="scale(0.015625)"/>
      <path id="Arial-BoldMT-73" d="M 150 947 
L 1031 1081 
Q 1088 825 1259 692 
Q 1431 559 1741 559 
Q 2081 559 2253 684 
Q 2369 772 2369 919 
Q 2369 1019 2306 1084 
Q 2241 1147 2013 1200 
Q 950 1434 666 1628 
Q 272 1897 272 2375 
Q 272 2806 612 3100 
Q 953 3394 1669 3394 
Q 2350 3394 2681 3172 
Q 3013 2950 3138 2516 
L 2309 2363 
Q 2256 2556 2107 2659 
Q 1959 2763 1684 2763 
Q 1338 2763 1188 2666 
Q 1088 2597 1088 2488 
Q 1088 2394 1175 2328 
Q 1294 2241 1995 2081 
Q 2697 1922 2975 1691 
Q 3250 1456 3250 1038 
Q 3250 581 2869 253 
Q 2488 -75 1741 -75 
Q 1063 -75 667 200 
Q 272 475 150 947 
z
" transform="scale(0.015625)"/>
     </defs>
     <use xlink:href="#Arial-BoldMT-36"/>
     <use xlink:href="#Arial-BoldMT-20" x="55.615234"/>
     <use xlink:href="#Arial-BoldMT-44" x="83.398438"/>
     <use xlink:href="#Arial-BoldMT-61" x="155.615234"/>
     <use xlink:href="#Arial-BoldMT-74" x="211.230469"/>
     <use xlink:href="#Arial-BoldMT-61" x="244.53125"/>
     <use xlink:href="#Arial-BoldMT-20" x="300.146484"/>
     <use xlink:href="#Arial-BoldMT-53" x="327.929688"/>
     <use xlink:href="#Arial-BoldMT-6f" x="394.628906"/>
     <use xlink:href="#Arial-BoldMT-75" x="455.712891"/>
     <use xlink:href="#Arial-BoldMT-72" x="516.796875"/>
     <use xlink:href="#Arial-BoldMT-63" x="555.712891"/>
     <use xlink:href="#Arial-BoldMT-65" x="611.328125"/>
     <use xlink:href="#Arial-BoldMT-73" x="666.943359"/>
    </g>
    <!-- (PLUTO, ACRIS, DOB, -->
    <g transform="translate(161.917031 248.554688) scale(0.18 -0.18)">
     <defs>
      <path id="Arial-BoldMT-28" d="M 1916 -1347 
L 1313 -1347 
Q 834 -625 584 153 
Q 334 931 334 1659 
Q 334 2563 644 3369 
Q 913 4069 1325 4659 
L 1925 4659 
Q 1497 3713 1336 3048 
Q 1175 2384 1175 1641 
Q 1175 1128 1270 590 
Q 1366 53 1531 -431 
Q 1641 -750 1916 -1347 
z
" transform="scale(0.015625)"/>
      <path id="Arial-BoldMT-50" d="M 466 0 
L 466 4581 
L 1950 4581 
Q 2794 4581 3050 4513 
Q 3444 4409 3709 4064 
Q 3975 3719 3975 3172 
Q 3975 2750 3822 2462 
Q 3669 2175 3433 2011 
Q 3197 1847 2953 1794 
Q 2622 1728 1994 1728 
L 1391 1728 
L 1391 0 
L 466 0 
z
M 1391 3806 
L 1391 2506 
L 1897 2506 
Q 2444 2506 2628 2578 
Q 2813 2650 2917 2803 
Q 3022 2956 3022 3159 
Q 3022 3409 2875 3571 
Q 2728 3734 2503 3775 
Q 2338 3806 1838 3806 
L 1391 3806 
z
" transform="scale(0.015625)"/>
      <path id="Arial-BoldMT-4c" d="M 491 0 
L 491 4544 
L 1416 4544 
L 1416 772 
L 3716 772 
L 3716 0 
L 491 0 
z
" transform="scale(0.015625)"/>
      <path id="Arial-BoldMT-55" d="M 459 4581 
L 1384 4581 
L 1384 2100 
Q 1384 1509 1419 1334 
Q 1478 1053 1701 883 
Q 1925 713 2313 713 
Q 2706 713 2906 873 
Q 3106 1034 3147 1268 
Q 3188 1503 3188 2047 
L 3188 4581 
L 4113 4581 
L 4113 2175 
Q 4113 1350 4038 1009 
Q 3963 669 3761 434 
Q 3559 200 3221 61 
Q 2884 -78 2341 -78 
Q 1684 -78 1345 73 
Q 1006 225 809 467 
Q 613 709 550 975 
Q 459 1369 459 2138 
L 459 4581 
z
" transform="scale(0.015625)"/>
      <path id="Arial-BoldMT-54" d="M 1497 0 
L 1497 3806 
L 138 3806 
L 138 4581 
L 3778 4581 
L 3778 3806 
L 2422 3806 
L 2422 0 
L 1497 0 
z
" transform="scale(0.015625)"/>
      <path id="Arial-BoldMT-4f" d="M 278 2263 
Q 278 2963 488 3438 
Q 644 3788 914 4066 
Q 1184 4344 1506 4478 
Q 1934 4659 2494 4659 
Q 3506 4659 4114 4031 
Q 4722 3403 4722 2284 
Q 4722 1175 4119 548 
Q 3516 -78 2506 -78 
Q 1484 -78 881 545 
Q 278 1169 278 2263 
z
M 1231 2294 
Q 1231 1516 1590 1114 
Q 1950 713 2503 713 
Q 3056 713 3411 1111 
Q 3766 1509 3766 2306 
Q 3766 3094 3420 3481 
Q 3075 3869 2503 3869 
Q 1931 3869 1581 3476 
Q 1231 3084 1231 2294 
z
" transform="scale(0.015625)"/>
      <path id="Arial-BoldMT-2c" d="M 438 878 
L 1316 878 
L 1316 250 
Q 1316 -131 1250 -351 
Q 1184 -572 1001 -747 
Q 819 -922 538 -1022 
L 366 -659 
Q 631 -572 743 -419 
Q 856 -266 863 0 
L 438 0 
L 438 878 
z
" transform="scale(0.015625)"/>
      <path id="Arial-BoldMT-41" d="M 4597 0 
L 3591 0 
L 3191 1041 
L 1359 1041 
L 981 0 
L 0 0 
L 1784 4581 
L 2763 4581 
L 4597 0 
z
M 2894 1813 
L 2263 3513 
L 1644 1813 
L 2894 1813 
z
" transform="scale(0.015625)"/>
      <path id="Arial-BoldMT-43" d="M 3397 1684 
L 4294 1400 
Q 4088 650 3608 286 
Q 3128 -78 2391 -78 
Q 1478 -78 890 545 
Q 303 1169 303 2250 
Q 303 3394 893 4026 
Q 1484 4659 2447 4659 
Q 3288 4659 3813 4163 
Q 4125 3869 4281 3319 
L 3366 3100 
Q 3284 3456 3026 3662 
Q 2769 3869 2400 3869 
Q 1891 3869 1573 3503 
Q 1256 3138 1256 2319 
Q 1256 1450 1568 1081 
Q 1881 713 2381 713 
Q 2750 713 3015 947 
Q 3281 1181 3397 1684 
z
" transform="scale(0.015625)"/>
      <path id="Arial-BoldMT-52" d="M 469 0 
L 469 4581 
L 2416 4581 
Q 3150 4581 3483 4457 
Q 3816 4334 4016 4018 
Q 4216 3703 4216 3297 
Q 4216 2781 3912 2445 
Q 3609 2109 3006 2022 
Q 3306 1847 3501 1637 
Q 3697 1428 4028 894 
L 4588 0 
L 3481 0 
L 2813 997 
Q 2456 1531 2325 1670 
Q 2194 1809 2047 1861 
Q 1900 1913 1581 1913 
L 1394 1913 
L 1394 0 
L 469 0 
z
M 1394 2644 
L 2078 2644 
Q 2744 2644 2909 2700 
Q 3075 2756 3169 2893 
Q 3263 3031 3263 3238 
Q 3263 3469 3139 3611 
Q 3016 3753 2791 3791 
Q 2678 3806 2116 3806 
L 1394 3806 
L 1394 2644 
z
" transform="scale(0.015625)"/>
      <path id="Arial-BoldMT-49" d="M 438 0 
L 438 4581 
L 1363 4581 
L 1363 0 
L 438 0 
z
" transform="scale(0.015625)"/>
      <path id="Arial-BoldMT-42" d="M 469 4581 
L 2300 4581 
Q 2844 4581 3111 4536 
Q 3378 4491 3589 4347 
Q 3800 4203 3940 3964 
Q 4081 3725 4081 3428 
Q 4081 3106 3907 2837 
Q 3734 2569 3438 2434 
Q 3856 2313 4081 2019 
Q 4306 1725 4306 1328 
Q 4306 1016 4161 720 
Q 4016 425 3764 248 
Q 3513 72 3144 31 
Q 2913 6 2028 0 
L 469 0 
L 469 4581 
z
M 1394 3819 
L 1394 2759 
L 2000 2759 
Q 2541 2759 2672 2775 
Q 2909 2803 3045 2939 
Q 3181 3075 3181 3297 
Q 3181 3509 3064 3642 
Q 2947 3775 2716 3803 
Q 2578 3819 1925 3819 
L 1394 3819 
z
M 1394 1997 
L 1394 772 
L 2250 772 
Q 2750 772 2884 800 
Q 3091 838 3220 983 
Q 3350 1128 3350 1372 
Q 3350 1578 3250 1722 
Q 3150 1866 2961 1931 
Q 2772 1997 2141 1997 
L 1394 1997 
z
" transform="scale(0.015625)"/>
     </defs>
     <use xlink:href="#Arial-BoldMT-28"/>
     <use xlink:href="#Arial-BoldMT-50" x="33.300781"/>
     <use xlink:href="#Arial-BoldMT-4c" x="100"/>
     <use xlink:href="#Arial-BoldMT-55" x="161.083984"/>
     <use xlink:href="#Arial-BoldMT-54" x="233.300781"/>
     <use xlink:href="#Arial-BoldMT-4f" x="292.634766"/>
     <use xlink:href="#Arial-BoldMT-2c" x="370.417969"/>
     <use xlink:href="#Arial-BoldMT-20" x="398.201172"/>
     <use xlink:href="#Arial-BoldMT-41" x="422.234375"/>
     <use xlink:href="#Arial-BoldMT-43" x="494.451172"/>
     <use xlink:href="#Arial-BoldMT-52" x="566.667969"/>
     <use xlink:href="#Arial-BoldMT-49" x="638.884766"/>
     <use xlink:href="#Arial-BoldMT-53" x="666.667969"/>
     <use xlink:href="#Arial-BoldMT-2c" x="733.367188"/>
     <use xlink:href="#Arial-BoldMT-20" x="761.150391"/>
     <use xlink:href="#Arial-BoldMT-44" x="788.933594"/>
     <use xlink:href="#Arial-BoldMT-4f" x="861.150391"/>
     <use xlink:href="#Arial-BoldMT-42" x="938.933594"/>
     <use xlink:href="#Arial-BoldMT-2c" x="1011.150391"/>
    </g>
    <!-- MTA, Business, Storefront) -->
    <g transform="translate(140.083594 268.06725) scale(0.18 -0.18)">
     <defs>
      <path id="Arial-BoldMT-4d" d="M 453 0 
L 453 4581 
L 1838 4581 
L 2669 1456 
L 3491 4581 
L 4878 4581 
L 4878 0 
L 4019 0 
L 4019 3606 
L 3109 0 
L 2219 0 
L 1313 3606 
L 1313 0 
L 453 0 
z
" transform="scale(0.015625)"/>
      <path id="Arial-BoldMT-69" d="M 459 3769 
L 459 4581 
L 1338 4581 
L 1338 3769 
L 459 3769 
z
M 459 0 
L 459 3319 
L 1338 3319 
L 1338 0 
L 459 0 
z
" transform="scale(0.015625)"/>
      <path id="Arial-BoldMT-6e" d="M 3478 0 
L 2600 0 
L 2600 1694 
Q 2600 2231 2544 2389 
Q 2488 2547 2361 2634 
Q 2234 2722 2056 2722 
Q 1828 2722 1647 2597 
Q 1466 2472 1398 2265 
Q 1331 2059 1331 1503 
L 1331 0 
L 453 0 
L 453 3319 
L 1269 3319 
L 1269 2831 
Q 1703 3394 2363 3394 
Q 2653 3394 2893 3289 
Q 3134 3184 3257 3021 
Q 3381 2859 3429 2653 
Q 3478 2447 3478 2063 
L 3478 0 
z
" transform="scale(0.015625)"/>
      <path id="Arial-BoldMT-66" d="M 75 3319 
L 563 3319 
L 563 3569 
Q 563 3988 652 4194 
Q 741 4400 980 4529 
Q 1219 4659 1584 4659 
Q 1959 4659 2319 4547 
L 2200 3934 
Q 1991 3984 1797 3984 
Q 1606 3984 1523 3895 
Q 1441 3806 1441 3553 
L 1441 3319 
L 2097 3319 
L 2097 2628 
L 1441 2628 
L 1441 0 
L 563 0 
L 563 2628 
L 75 2628 
L 75 3319 
z
" transform="scale(0.015625)"/>
      <path id="Arial-BoldMT-29" d="M 216 -1347 
Q 475 -791 581 -494 
Q 688 -197 778 190 
Q 869 578 912 926 
Q 956 1275 956 1641 
Q 956 2384 797 3048 
Q 638 3713 209 4659 
L 806 4659 
Q 1278 3988 1539 3234 
Q 1800 2481 1800 1706 
Q 1800 1053 1594 306 
Q 1359 -531 822 -1347 
L 216 -1347 
z
" transform="scale(0.015625)"/>
     </defs>
     <use xlink:href="#Arial-BoldMT-4d"/>
     <use xlink:href="#Arial-BoldMT-54" x="83.300781"/>
     <use xlink:href="#Arial-BoldMT-41" x="137.009766"/>
     <use xlink:href="#Arial-BoldMT-2c" x="209.226562"/>
     <use xlink:href="#Arial-BoldMT-20" x="237.009766"/>
     <use xlink:href="#Arial-BoldMT-42" x="264.792969"/>
     <use xlink:href="#Arial-BoldMT-75" x="337.009766"/>
     <use xlink:href="#Arial-BoldMT-73" x="398.09375"/>
     <use xlink:href="#Arial-BoldMT-69" x="453.708984"/>
     <use xlink:href="#Arial-BoldMT-6e" x="481.492188"/>
     <use xlink:href="#Arial-BoldMT-65" x="542.576172"/>
     <use xlink:href="#Arial-BoldMT-73" x="598.191406"/>
     <use xlink:href="#Arial-BoldMT-73" x="653.806641"/>
     <use xlink:href="#Arial-BoldMT-2c" x="709.421875"/>
     <use xlink:href="#Arial-BoldMT-20" x="737.205078"/>
     <use xlink:href="#Arial-BoldMT-53" x="764.988281"/>
     <use xlink:href="#Arial-BoldMT-74" x="831.6875"/>
     <use xlink:href="#Arial-BoldMT-6f" x="864.988281"/>
     <use xlink:href="#Arial-BoldMT-72" x="926.072266"/>
     <use xlink:href="#Arial-BoldMT-65" x="964.988281"/>
     <use xlink:href="#Arial-BoldMT-66" x="1020.603516"/>
     <use xlink:href="#Arial-BoldMT-72" x="1053.904297"/>
     <use xlink:href="#Arial-BoldMT-6f" x="1092.820312"/>
     <use xlink:href="#Arial-BoldMT-6e" x="1153.904297"/>
     <use xlink:href="#Arial-BoldMT-74" x="1214.988281"/>
     <use xlink:href="#Arial-BoldMT-29" x="1248.289062"/>
    </g>
   </g>
   <g id="text_2">
    <!-- ETL Pipeline -->
    <g transform="translate(485.251875 229.278375) scale(0.18 -0.18)">
     <defs>
      <path id="Arial-BoldMT-45" d="M 466 0 
L 466 4581 
L 3863 4581 
L 3863 3806 
L 1391 3806 
L 1391 2791 
L 3691 2791 
L 3691 2019 
L 1391 2019 
L 1391 772 
L 3950 772 
L 3950 0 
L 466 0 
z
" transform="scale(0.015625)"/>
      <path id="Arial-BoldMT-70" d="M 434 3319 
L 1253 3319 
L 1253 2831 
Q 1413 3081 1684 3237 
Q 1956 3394 2288 3394 
Q 2866 3394 3269 2941 
Q 3672 2488 3672 1678 
Q 3672 847 3265 386 
Q 2859 -75 2281 -75 
Q 2006 -75 1782 34 
Q 1559 144 1313 409 
L 1313 -1263 
L 434 -1263 
L 434 3319 
z
M 1303 1716 
Q 1303 1156 1525 889 
Q 1747 622 2066 622 
Q 2372 622 2575 867 
Q 2778 1113 2778 1672 
Q 2778 2194 2568 2447 
Q 2359 2700 2050 2700 
Q 1728 2700 1515 2451 
Q 1303 2203 1303 1716 
z
" transform="scale(0.015625)"/>
      <path id="Arial-BoldMT-6c" d="M 459 0 
L 459 4581 
L 1338 4581 
L 1338 0 
L 459 0 
z
" transform="scale(0.015625)"/>
     </defs>
     <use xlink:href="#Arial-BoldMT-45"/>
     <use xlink:href="#Arial-BoldMT-54" x="66.699219"/>
     <use xlink:href="#Arial-BoldMT-4c" x="127.783203"/>
     <use xlink:href="#Arial-BoldMT-20" x="187.117188"/>
     <use xlink:href="#Arial-BoldMT-50" x="214.900391"/>
     <use xlink:href="#Arial-BoldMT-69" x="281.599609"/>
     <use xlink:href="#Arial-BoldMT-70" x="309.382812"/>
     <use xlink:href="#Arial-BoldMT-65" x="370.466797"/>
     <use xlink:href="#Arial-BoldMT-6c" x="426.082031"/>
     <use xlink:href="#Arial-BoldMT-69" x="453.865234"/>
     <use xlink:href="#Arial-BoldMT-6e" x="481.648438"/>
     <use xlink:href="#Arial-BoldMT-65" x="542.732422"/>
    </g>
    <!-- (BBL Standardization, -->
    <g transform="translate(445.26375 248.554688) scale(0.18 -0.18)">
     <defs>
      <path id="Arial-BoldMT-64" d="M 3503 0 
L 2688 0 
L 2688 488 
Q 2484 203 2207 64 
Q 1931 -75 1650 -75 
Q 1078 -75 670 386 
Q 263 847 263 1672 
Q 263 2516 659 2955 
Q 1056 3394 1663 3394 
Q 2219 3394 2625 2931 
L 2625 4581 
L 3503 4581 
L 3503 0 
z
M 1159 1731 
Q 1159 1200 1306 963 
Q 1519 619 1900 619 
Q 2203 619 2415 876 
Q 2628 1134 2628 1647 
Q 2628 2219 2422 2470 
Q 2216 2722 1894 2722 
Q 1581 2722 1370 2473 
Q 1159 2225 1159 1731 
z
" transform="scale(0.015625)"/>
      <path id="Arial-BoldMT-7a" d="M 106 0 
L 106 684 
L 1350 2113 
Q 1656 2463 1803 2609 
Q 1650 2600 1400 2597 
L 228 2591 
L 228 3319 
L 2972 3319 
L 2972 2697 
L 1703 1234 
L 1256 750 
Q 1622 772 1709 772 
L 3069 772 
L 3069 0 
L 106 0 
z
" transform="scale(0.015625)"/>
     </defs>
     <use xlink:href="#Arial-BoldMT-28"/>
     <use xlink:href="#Arial-BoldMT-42" x="33.300781"/>
     <use xlink:href="#Arial-BoldMT-42" x="105.517578"/>
     <use xlink:href="#Arial-BoldMT-4c" x="177.734375"/>
     <use xlink:href="#Arial-BoldMT-20" x="237.068359"/>
     <use xlink:href="#Arial-BoldMT-53" x="264.851562"/>
     <use xlink:href="#Arial-BoldMT-74" x="331.550781"/>
     <use xlink:href="#Arial-BoldMT-61" x="364.851562"/>
     <use xlink:href="#Arial-BoldMT-6e" x="420.466797"/>
     <use xlink:href="#Arial-BoldMT-64" x="481.550781"/>
     <use xlink:href="#Arial-BoldMT-61" x="542.634766"/>
     <use xlink:href="#Arial-BoldMT-72" x="598.25"/>
     <use xlink:href="#Arial-BoldMT-64" x="637.166016"/>
     <use xlink:href="#Arial-BoldMT-69" x="698.25"/>
     <use xlink:href="#Arial-BoldMT-7a" x="726.033203"/>
     <use xlink:href="#Arial-BoldMT-61" x="776.033203"/>
     <use xlink:href="#Arial-BoldMT-74" x="831.648438"/>
     <use xlink:href="#Arial-BoldMT-69" x="864.949219"/>
     <use xlink:href="#Arial-BoldMT-6f" x="892.732422"/>
     <use xlink:href="#Arial-BoldMT-6e" x="953.816406"/>
     <use xlink:href="#Arial-BoldMT-2c" x="1014.900391"/>
    </g>
    <!-- Temporal Alignment) -->
    <g transform="translate(450.10125 268.06725) scale(0.18 -0.18)">
     <defs>
      <path id="Arial-BoldMT-6d" d="M 394 3319 
L 1203 3319 
L 1203 2866 
Q 1638 3394 2238 3394 
Q 2556 3394 2790 3262 
Q 3025 3131 3175 2866 
Q 3394 3131 3647 3262 
Q 3900 3394 4188 3394 
Q 4553 3394 4806 3245 
Q 5059 3097 5184 2809 
Q 5275 2597 5275 2122 
L 5275 0 
L 4397 0 
L 4397 1897 
Q 4397 2391 4306 2534 
Q 4184 2722 3931 2722 
Q 3747 2722 3584 2609 
Q 3422 2497 3350 2280 
Q 3278 2063 3278 1594 
L 3278 0 
L 2400 0 
L 2400 1819 
Q 2400 2303 2353 2443 
Q 2306 2584 2207 2653 
Q 2109 2722 1941 2722 
Q 1738 2722 1575 2612 
Q 1413 2503 1342 2297 
Q 1272 2091 1272 1613 
L 1272 0 
L 394 0 
L 394 3319 
z
" transform="scale(0.015625)"/>
      <path id="Arial-BoldMT-67" d="M 378 -219 
L 1381 -341 
Q 1406 -516 1497 -581 
Q 1622 -675 1891 -675 
Q 2234 -675 2406 -572 
Q 2522 -503 2581 -350 
Q 2622 -241 2622 53 
L 2622 538 
Q 2228 0 1628 0 
Q 959 0 569 566 
Q 263 1013 263 1678 
Q 263 2513 664 2953 
Q 1066 3394 1663 3394 
Q 2278 3394 2678 2853 
L 2678 3319 
L 3500 3319 
L 3500 341 
Q 3500 -247 3403 -537 
Q 3306 -828 3131 -993 
Q 2956 -1159 2664 -1253 
Q 2372 -1347 1925 -1347 
Q 1081 -1347 728 -1058 
Q 375 -769 375 -325 
Q 375 -281 378 -219 
z
M 1163 1728 
Q 1163 1200 1367 954 
Q 1572 709 1872 709 
Q 2194 709 2416 961 
Q 2638 1213 2638 1706 
Q 2638 2222 2425 2472 
Q 2213 2722 1888 2722 
Q 1572 2722 1367 2476 
Q 1163 2231 1163 1728 
z
" transform="scale(0.015625)"/>
     </defs>
     <use xlink:href="#Arial-BoldMT-54"/>
     <use xlink:href="#Arial-BoldMT-65" x="53.708984"/>
     <use xlink:href="#Arial-BoldMT-6d" x="109.324219"/>
     <use xlink:href="#Arial-BoldMT-70" x="198.240234"/>
     <use xlink:href="#Arial-BoldMT-6f" x="259.324219"/>
     <use xlink:href="#Arial-BoldMT-72" x="320.408203"/>
     <use xlink:href="#Arial-BoldMT-61" x="359.324219"/>
     <use xlink:href="#Arial-BoldMT-6c" x="414.939453"/>
     <use xlink:href="#Arial-BoldMT-20" x="442.722656"/>
     <use xlink:href="#Arial-BoldMT-41" x="466.755859"/>
     <use xlink:href="#Arial-BoldMT-6c" x="538.972656"/>
     <use xlink:href="#Arial-BoldMT-69" x="566.755859"/>
     <use xlink:href="#Arial-BoldMT-67" x="594.539062"/>
     <use xlink:href="#Arial-BoldMT-6e" x="655.623047"/>
     <use xlink:href="#Arial-BoldMT-6d" x="716.707031"/>
     <use xlink:href="#Arial-BoldMT-65" x="805.623047"/>
     <use xlink:href="#Arial-BoldMT-6e" x="861.238281"/>
     <use xlink:href="#Arial-BoldMT-74" x="922.322266"/>
     <use xlink:href="#Arial-BoldMT-29" x="955.623047"/>
    </g>
   </g>
   <g id="text_3">
    <!-- Feature Engineering -->
    <g transform="translate(735.769688 229.16025) scale(0.18 -0.18)">
     <defs>
      <path id="Arial-BoldMT-46" d="M 472 0 
L 472 4581 
L 3613 4581 
L 3613 3806 
L 1397 3806 
L 1397 2722 
L 3309 2722 
L 3309 1947 
L 1397 1947 
L 1397 0 
L 472 0 
z
" transform="scale(0.015625)"/>
     </defs>
     <use xlink:href="#Arial-BoldMT-46"/>
     <use xlink:href="#Arial-BoldMT-65" x="61.083984"/>
     <use xlink:href="#Arial-BoldMT-61" x="116.699219"/>
     <use xlink:href="#Arial-BoldMT-74" x="172.314453"/>
     <use xlink:href="#Arial-BoldMT-75" x="205.615234"/>
     <use xlink:href="#Arial-BoldMT-72" x="266.699219"/>
     <use xlink:href="#Arial-BoldMT-65" x="305.615234"/>
     <use xlink:href="#Arial-BoldMT-20" x="361.230469"/>
     <use xlink:href="#Arial-BoldMT-45" x="389.013672"/>
     <use xlink:href="#Arial-BoldMT-6e" x="455.712891"/>
     <use xlink:href="#Arial-BoldMT-67" x="516.796875"/>
     <use xlink:href="#Arial-BoldMT-69" x="577.880859"/>
     <use xlink:href="#Arial-BoldMT-6e" x="605.664062"/>
     <use xlink:href="#Arial-BoldMT-65" x="666.748047"/>
     <use xlink:href="#Arial-BoldMT-65" x="722.363281"/>
     <use xlink:href="#Arial-BoldMT-72" x="777.978516"/>
     <use xlink:href="#Arial-BoldMT-69" x="816.894531"/>
     <use xlink:href="#Arial-BoldMT-6e" x="844.677734"/>
     <use xlink:href="#Arial-BoldMT-67" x="905.761719"/>
    </g>
    <!-- (20 Leakage-Free -->
    <g transform="translate(749.248594 248.672813) scale(0.18 -0.18)">
     <defs>
      <path id="Arial-BoldMT-32" d="M 3238 816 
L 3238 0 
L 159 0 
Q 209 463 459 877 
Q 709 1291 1447 1975 
Q 2041 2528 2175 2725 
Q 2356 2997 2356 3263 
Q 2356 3556 2198 3714 
Q 2041 3872 1763 3872 
Q 1488 3872 1325 3706 
Q 1163 3541 1138 3156 
L 263 3244 
Q 341 3969 753 4284 
Q 1166 4600 1784 4600 
Q 2463 4600 2850 4234 
Q 3238 3869 3238 3325 
Q 3238 3016 3127 2736 
Q 3016 2456 2775 2150 
Q 2616 1947 2200 1565 
Q 1784 1184 1673 1059 
Q 1563 934 1494 816 
L 3238 816 
z
" transform="scale(0.015625)"/>
      <path id="Arial-BoldMT-30" d="M 1756 4600 
Q 2422 4600 2797 4125 
Q 3244 3563 3244 2259 
Q 3244 959 2794 391 
Q 2422 -78 1756 -78 
Q 1088 -78 678 436 
Q 269 950 269 2269 
Q 269 3563 719 4131 
Q 1091 4600 1756 4600 
z
M 1756 3872 
Q 1597 3872 1472 3770 
Q 1347 3669 1278 3406 
Q 1188 3066 1188 2259 
Q 1188 1453 1269 1151 
Q 1350 850 1473 750 
Q 1597 650 1756 650 
Q 1916 650 2041 751 
Q 2166 853 2234 1116 
Q 2325 1453 2325 2259 
Q 2325 3066 2244 3367 
Q 2163 3669 2039 3770 
Q 1916 3872 1756 3872 
z
" transform="scale(0.015625)"/>
      <path id="Arial-BoldMT-6b" d="M 428 0 
L 428 4581 
L 1306 4581 
L 1306 2150 
L 2334 3319 
L 3416 3319 
L 2281 2106 
L 3497 0 
L 2550 0 
L 1716 1491 
L 1306 1063 
L 1306 0 
L 428 0 
z
" transform="scale(0.015625)"/>
      <path id="Arial-BoldMT-2d" d="M 359 1222 
L 359 2100 
L 2084 2100 
L 2084 1222 
L 359 1222 
z
" transform="scale(0.015625)"/>
     </defs>
     <use xlink:href="#Arial-BoldMT-28"/>
     <use xlink:href="#Arial-BoldMT-32" x="33.300781"/>
     <use xlink:href="#Arial-BoldMT-30" x="88.916016"/>
     <use xlink:href="#Arial-BoldMT-20" x="144.53125"/>
     <use xlink:href="#Arial-BoldMT-4c" x="172.314453"/>
     <use xlink:href="#Arial-BoldMT-65" x="233.398438"/>
     <use xlink:href="#Arial-BoldMT-61" x="289.013672"/>
     <use xlink:href="#Arial-BoldMT-6b" x="344.628906"/>
     <use xlink:href="#Arial-BoldMT-61" x="400.244141"/>
     <use xlink:href="#Arial-BoldMT-67" x="455.859375"/>
     <use xlink:href="#Arial-BoldMT-65" x="516.943359"/>
     <use xlink:href="#Arial-BoldMT-2d" x="572.558594"/>
     <use xlink:href="#Arial-BoldMT-46" x="605.859375"/>
     <use xlink:href="#Arial-BoldMT-72" x="666.943359"/>
     <use xlink:href="#Arial-BoldMT-65" x="705.859375"/>
     <use xlink:href="#Arial-BoldMT-65" x="761.474609"/>
    </g>
    <!-- Features) -->
    <g transform="translate(782.270156 268.185375) scale(0.18 -0.18)">
     <use xlink:href="#Arial-BoldMT-46"/>
     <use xlink:href="#Arial-BoldMT-65" x="61.083984"/>
     <use xlink:href="#Arial-BoldMT-61" x="116.699219"/>
     <use xlink:href="#Arial-BoldMT-74" x="172.314453"/>
     <use xlink:href="#Arial-BoldMT-75" x="205.615234"/>
     <use xlink:href="#Arial-BoldMT-72" x="266.699219"/>
     <use xlink:href="#Arial-BoldMT-65" x="305.615234"/>
     <use xlink:href="#Arial-BoldMT-73" x="361.230469"/>
     <use xlink:href="#Arial-BoldMT-29" x="416.845703"/>
    </g>
   </g>
   <g id="text_4">
    <!-- XGBoost Model -->
    <g style="fill: #ffffff" transform="translate(1039.464844 229.377938) scale(0.18 -0.18)">
     <defs>
      <path id="Arial-BoldMT-58" d="M 0 0 
L 1566 2391 
L 147 4581 
L 1228 4581 
L 2147 3109 
L 3047 4581 
L 4119 4581 
L 2694 2356 
L 4259 0 
L 3144 0 
L 2128 1584 
L 1109 0 
L 0 0 
z
" transform="scale(0.015625)"/>
      <path id="Arial-BoldMT-47" d="M 2597 1684 
L 2597 2456 
L 4591 2456 
L 4591 631 
Q 4300 350 3748 136 
Q 3197 -78 2631 -78 
Q 1913 -78 1378 223 
Q 844 525 575 1086 
Q 306 1647 306 2306 
Q 306 3022 606 3578 
Q 906 4134 1484 4431 
Q 1925 4659 2581 4659 
Q 3434 4659 3914 4301 
Q 4394 3944 4531 3313 
L 3613 3141 
Q 3516 3478 3248 3673 
Q 2981 3869 2581 3869 
Q 1975 3869 1617 3484 
Q 1259 3100 1259 2344 
Q 1259 1528 1621 1120 
Q 1984 713 2572 713 
Q 2863 713 3155 827 
Q 3447 941 3656 1103 
L 3656 1684 
L 2597 1684 
z
" transform="scale(0.015625)"/>
     </defs>
     <use xlink:href="#Arial-BoldMT-58"/>
     <use xlink:href="#Arial-BoldMT-47" x="66.699219"/>
     <use xlink:href="#Arial-BoldMT-42" x="144.482422"/>
     <use xlink:href="#Arial-BoldMT-6f" x="216.699219"/>
     <use xlink:href="#Arial-BoldMT-6f" x="277.783203"/>
     <use xlink:href="#Arial-BoldMT-73" x="338.867188"/>
     <use xlink:href="#Arial-BoldMT-74" x="394.482422"/>
     <use xlink:href="#Arial-BoldMT-20" x="427.783203"/>
     <use xlink:href="#Arial-BoldMT-4d" x="455.566406"/>
     <use xlink:href="#Arial-BoldMT-6f" x="538.867188"/>
     <use xlink:href="#Arial-BoldMT-64" x="599.951172"/>
     <use xlink:href="#Arial-BoldMT-65" x="661.035156"/>
     <use xlink:href="#Arial-BoldMT-6c" x="716.650391"/>
    </g>
    <!-- (92.41% ROC-AUC) -->
    <g style="fill: #ffffff" transform="translate(1024.948125 248.65425) scale(0.18 -0.18)">
     <defs>
      <path id="Arial-BoldMT-39" d="M 291 1059 
L 1141 1153 
Q 1172 894 1303 769 
Q 1434 644 1650 644 
Q 1922 644 2112 894 
Q 2303 1144 2356 1931 
Q 2025 1547 1528 1547 
Q 988 1547 595 1964 
Q 203 2381 203 3050 
Q 203 3747 617 4173 
Q 1031 4600 1672 4600 
Q 2369 4600 2816 4061 
Q 3263 3522 3263 2288 
Q 3263 1031 2797 475 
Q 2331 -81 1584 -81 
Q 1047 -81 715 205 
Q 384 491 291 1059 
z
M 2278 2978 
Q 2278 3403 2083 3637 
Q 1888 3872 1631 3872 
Q 1388 3872 1227 3680 
Q 1066 3488 1066 3050 
Q 1066 2606 1241 2398 
Q 1416 2191 1678 2191 
Q 1931 2191 2104 2391 
Q 2278 2591 2278 2978 
z
" transform="scale(0.015625)"/>
      <path id="Arial-BoldMT-2e" d="M 459 0 
L 459 878 
L 1338 878 
L 1338 0 
L 459 0 
z
" transform="scale(0.015625)"/>
      <path id="Arial-BoldMT-34" d="M 1994 0 
L 1994 922 
L 119 922 
L 119 1691 
L 2106 4600 
L 2844 4600 
L 2844 1694 
L 3413 1694 
L 3413 922 
L 2844 922 
L 2844 0 
L 1994 0 
z
M 1994 1694 
L 1994 3259 
L 941 1694 
L 1994 1694 
z
" transform="scale(0.015625)"/>
      <path id="Arial-BoldMT-31" d="M 2519 0 
L 1641 0 
L 1641 3309 
Q 1159 2859 506 2644 
L 506 3441 
Q 850 3553 1253 3867 
Q 1656 4181 1806 4600 
L 2519 4600 
L 2519 0 
z
" transform="scale(0.015625)"/>
      <path id="Arial-BoldMT-25" d="M 278 3450 
Q 278 4066 548 4362 
Q 819 4659 1281 4659 
Q 1759 4659 2029 4364 
Q 2300 4069 2300 3450 
Q 2300 2834 2029 2537 
Q 1759 2241 1297 2241 
Q 819 2241 548 2536 
Q 278 2831 278 3450 
z
M 963 3456 
Q 963 3009 1066 2856 
Q 1144 2744 1281 2744 
Q 1422 2744 1500 2856 
Q 1600 3009 1600 3456 
Q 1600 3903 1500 4053 
Q 1422 4169 1281 4169 
Q 1144 4169 1066 4056 
Q 963 3903 963 3456 
z
M 1950 -175 
L 1300 -175 
L 3741 4659 
L 4372 4659 
L 1950 -175 
z
M 3369 1028 
Q 3369 1644 3639 1941 
Q 3909 2238 4378 2238 
Q 4850 2238 5120 1941 
Q 5391 1644 5391 1028 
Q 5391 409 5120 112 
Q 4850 -184 4388 -184 
Q 3909 -184 3639 112 
Q 3369 409 3369 1028 
z
M 4053 1031 
Q 4053 584 4156 434 
Q 4234 319 4372 319 
Q 4513 319 4588 431 
Q 4691 584 4691 1031 
Q 4691 1478 4591 1631 
Q 4513 1744 4372 1744 
Q 4231 1744 4156 1631 
Q 4053 1478 4053 1031 
z
" transform="scale(0.015625)"/>
     </defs>
     <use xlink:href="#Arial-BoldMT-28"/>
     <use xlink:href="#Arial-BoldMT-39" x="33.300781"/>
     <use xlink:href="#Arial-BoldMT-32" x="88.916016"/>
     <use xlink:href="#Arial-BoldMT-2e" x="144.53125"/>
     <use xlink:href="#Arial-BoldMT-34" x="172.314453"/>
     <use xlink:href="#Arial-BoldMT-31" x="227.929688"/>
     <use xlink:href="#Arial-BoldMT-25" x="283.544922"/>
     <use xlink:href="#Arial-BoldMT-20" x="372.460938"/>
     <use xlink:href="#Arial-BoldMT-52" x="400.244141"/>
     <use xlink:href="#Arial-BoldMT-4f" x="472.460938"/>
     <use xlink:href="#Arial-BoldMT-43" x="550.244141"/>
     <use xlink:href="#Arial-BoldMT-2d" x="622.460938"/>
     <use xlink:href="#Arial-BoldMT-41" x="655.761719"/>
     <use xlink:href="#Arial-BoldMT-55" x="727.978516"/>
     <use xlink:href="#Arial-BoldMT-43" x="800.195312"/>
     <use xlink:href="#Arial-BoldMT-29" x="872.412109"/>
    </g>
    <!-- 7,191 Buildings -->
    <g style="fill: #ffffff" transform="translate(1040.446406 267.967688) scale(0.18 -0.18)">
     <defs>
      <path id="Arial-BoldMT-37" d="M 272 3703 
L 272 4519 
L 3275 4519 
L 3275 3881 
Q 2903 3516 2518 2831 
Q 2134 2147 1932 1376 
Q 1731 606 1734 0 
L 888 0 
Q 909 950 1279 1937 
Q 1650 2925 2269 3703 
L 272 3703 
z
" transform="scale(0.015625)"/>
     </defs>
     <use xlink:href="#Arial-BoldMT-37"/>
     <use xlink:href="#Arial-BoldMT-2c" x="55.615234"/>
     <use xlink:href="#Arial-BoldMT-31" x="83.398438"/>
     <use xlink:href="#Arial-BoldMT-39" x="139.013672"/>
     <use xlink:href="#Arial-BoldMT-31" x="194.628906"/>
     <use xlink:href="#Arial-BoldMT-20" x="250.244141"/>
     <use xlink:href="#Arial-BoldMT-42" x="278.027344"/>
     <use xlink:href="#Arial-BoldMT-75" x="350.244141"/>
     <use xlink:href="#Arial-BoldMT-69" x="411.328125"/>
     <use xlink:href="#Arial-BoldMT-6c" x="439.111328"/>
     <use xlink:href="#Arial-BoldMT-64" x="466.894531"/>
     <use xlink:href="#Arial-BoldMT-69" x="527.978516"/>
     <use xlink:href="#Arial-BoldMT-6e" x="555.761719"/>
     <use xlink:href="#Arial-BoldMT-67" x="616.845703"/>
     <use xlink:href="#Arial-BoldMT-73" x="677.929688"/>
    </g>
   </g>
   <g id="text_5">
    <!-- SHAP Analysis -->
    <g style="fill: #ffffff" transform="translate(758.752031 545.169938) scale(0.18 -0.18)">
     <defs>
      <path id="Arial-BoldMT-48" d="M 469 0 
L 469 4581 
L 1394 4581 
L 1394 2778 
L 3206 2778 
L 3206 4581 
L 4131 4581 
L 4131 0 
L 3206 0 
L 3206 2003 
L 1394 2003 
L 1394 0 
L 469 0 
z
" transform="scale(0.015625)"/>
      <path id="Arial-BoldMT-79" d="M 44 3319 
L 978 3319 
L 1772 963 
L 2547 3319 
L 3456 3319 
L 2284 125 
L 2075 -453 
Q 1959 -744 1854 -897 
Q 1750 -1050 1614 -1145 
Q 1478 -1241 1279 -1294 
Q 1081 -1347 831 -1347 
Q 578 -1347 334 -1294 
L 256 -606 
Q 463 -647 628 -647 
Q 934 -647 1081 -467 
Q 1228 -288 1306 -9 
L 44 3319 
z
" transform="scale(0.015625)"/>
     </defs>
     <use xlink:href="#Arial-BoldMT-53"/>
     <use xlink:href="#Arial-BoldMT-48" x="66.699219"/>
     <use xlink:href="#Arial-BoldMT-41" x="138.916016"/>
     <use xlink:href="#Arial-BoldMT-50" x="211.132812"/>
     <use xlink:href="#Arial-BoldMT-20" x="276.082031"/>
     <use xlink:href="#Arial-BoldMT-41" x="300.115234"/>
     <use xlink:href="#Arial-BoldMT-6e" x="372.332031"/>
     <use xlink:href="#Arial-BoldMT-61" x="433.416016"/>
     <use xlink:href="#Arial-BoldMT-6c" x="489.03125"/>
     <use xlink:href="#Arial-BoldMT-79" x="516.814453"/>
     <use xlink:href="#Arial-BoldMT-73" x="572.429688"/>
     <use xlink:href="#Arial-BoldMT-69" x="628.044922"/>
     <use xlink:href="#Arial-BoldMT-73" x="655.828125"/>
    </g>
    <!-- (Feature Importance -->
    <g style="fill: #ffffff" transform="translate(736.266094 564.6825) scale(0.18 -0.18)">
     <use xlink:href="#Arial-BoldMT-28"/>
     <use xlink:href="#Arial-BoldMT-46" x="33.300781"/>
     <use xlink:href="#Arial-BoldMT-65" x="94.384766"/>
     <use xlink:href="#Arial-BoldMT-61" x="150"/>
     <use xlink:href="#Arial-BoldMT-74" x="205.615234"/>
     <use xlink:href="#Arial-BoldMT-75" x="238.916016"/>
     <use xlink:href="#Arial-BoldMT-72" x="300"/>
     <use xlink:href="#Arial-BoldMT-65" x="338.916016"/>
     <use xlink:href="#Arial-BoldMT-20" x="394.53125"/>
     <use xlink:href="#Arial-BoldMT-49" x="422.314453"/>
     <use xlink:href="#Arial-BoldMT-6d" x="450.097656"/>
     <use xlink:href="#Arial-BoldMT-70" x="539.013672"/>
     <use xlink:href="#Arial-BoldMT-6f" x="600.097656"/>
     <use xlink:href="#Arial-BoldMT-72" x="661.181641"/>
     <use xlink:href="#Arial-BoldMT-74" x="700.097656"/>
     <use xlink:href="#Arial-BoldMT-61" x="733.398438"/>
     <use xlink:href="#Arial-BoldMT-6e" x="789.013672"/>
     <use xlink:href="#Arial-BoldMT-63" x="850.097656"/>
     <use xlink:href="#Arial-BoldMT-65" x="905.712891"/>
    </g>
    <!-- &amp; Explainability) -->
    <g style="fill: #ffffff" transform="translate(752.77125 584.195063) scale(0.18 -0.18)">
     <defs>
      <path id="Arial-BoldMT-26" d="M 4519 559 
L 3988 -119 
Q 3597 72 3238 406 
Q 2959 156 2646 37 
Q 2334 -81 1903 -81 
Q 1047 -81 616 400 
Q 281 772 281 1256 
Q 281 1697 543 2048 
Q 806 2400 1328 2659 
Q 1094 2938 975 3189 
Q 856 3441 856 3666 
Q 856 4081 1189 4370 
Q 1522 4659 2138 4659 
Q 2731 4659 3065 4356 
Q 3400 4053 3400 3616 
Q 3400 3338 3234 3088 
Q 3069 2838 2566 2522 
L 3203 1681 
Q 3316 1881 3397 2203 
L 4191 2022 
Q 4072 1600 3984 1404 
Q 3897 1209 3797 1078 
Q 3944 941 4176 777 
Q 4409 613 4519 559 
z
M 2128 3050 
L 2366 3231 
Q 2628 3434 2628 3634 
Q 2628 3803 2501 3922 
Q 2375 4041 2159 4041 
Q 1950 4041 1831 3936 
Q 1713 3831 1713 3694 
Q 1713 3531 1913 3300 
L 2128 3050 
z
M 1784 2097 
Q 1481 1944 1331 1728 
Q 1181 1513 1181 1288 
Q 1181 1003 1367 823 
Q 1553 644 1866 644 
Q 2072 644 2262 725 
Q 2453 806 2678 994 
L 1784 2097 
z
" transform="scale(0.015625)"/>
      <path id="Arial-BoldMT-78" d="M 38 0 
L 1234 1709 
L 88 3319 
L 1159 3319 
L 1747 2406 
L 2366 3319 
L 3397 3319 
L 2272 1747 
L 3500 0 
L 2422 0 
L 1747 1028 
L 1066 0 
L 38 0 
z
" transform="scale(0.015625)"/>
      <path id="Arial-BoldMT-62" d="M 422 0 
L 422 4581 
L 1300 4581 
L 1300 2931 
Q 1706 3394 2263 3394 
Q 2869 3394 3266 2955 
Q 3663 2516 3663 1694 
Q 3663 844 3258 384 
Q 2853 -75 2275 -75 
Q 1991 -75 1714 67 
Q 1438 209 1238 488 
L 1238 0 
L 422 0 
z
M 1294 1731 
Q 1294 1216 1456 969 
Q 1684 619 2063 619 
Q 2353 619 2558 867 
Q 2763 1116 2763 1650 
Q 2763 2219 2556 2470 
Q 2350 2722 2028 2722 
Q 1713 2722 1503 2476 
Q 1294 2231 1294 1731 
z
" transform="scale(0.015625)"/>
     </defs>
     <use xlink:href="#Arial-BoldMT-26"/>
     <use xlink:href="#Arial-BoldMT-20" x="72.216797"/>
     <use xlink:href="#Arial-BoldMT-45" x="100"/>
     <use xlink:href="#Arial-BoldMT-78" x="166.699219"/>
     <use xlink:href="#Arial-BoldMT-70" x="222.314453"/>
     <use xlink:href="#Arial-BoldMT-6c" x="283.398438"/>
     <use xlink:href="#Arial-BoldMT-61" x="311.181641"/>
     <use xlink:href="#Arial-BoldMT-69" x="366.796875"/>
     <use xlink:href="#Arial-BoldMT-6e" x="394.580078"/>
     <use xlink:href="#Arial-BoldMT-61" x="455.664062"/>
     <use xlink:href="#Arial-BoldMT-62" x="511.279297"/>
     <use xlink:href="#Arial-BoldMT-69" x="572.363281"/>
     <use xlink:href="#Arial-BoldMT-6c" x="600.146484"/>
     <use xlink:href="#Arial-BoldMT-69" x="627.929688"/>
     <use xlink:href="#Arial-BoldMT-74" x="655.712891"/>
     <use xlink:href="#Arial-BoldMT-79" x="689.013672"/>
     <use xlink:href="#Arial-BoldMT-29" x="744.628906"/>
    </g>
   </g>
   <g id="text_6">
    <!-- Streamlit Dashboard -->
    <g style="fill: #ffffff" transform="translate(1018.441406 545.178375) scale(0.18 -0.18)">
     <defs>
      <path id="Arial-BoldMT-68" d="M 1334 4581 
L 1334 2897 
Q 1759 3394 2350 3394 
Q 2653 3394 2897 3281 
Q 3141 3169 3264 2994 
Q 3388 2819 3433 2606 
Q 3478 2394 3478 1947 
L 3478 0 
L 2600 0 
L 2600 1753 
Q 2600 2275 2550 2415 
Q 2500 2556 2373 2639 
Q 2247 2722 2056 2722 
Q 1838 2722 1666 2615 
Q 1494 2509 1414 2295 
Q 1334 2081 1334 1663 
L 1334 0 
L 456 0 
L 456 4581 
L 1334 4581 
z
" transform="scale(0.015625)"/>
     </defs>
     <use xlink:href="#Arial-BoldMT-53"/>
     <use xlink:href="#Arial-BoldMT-74" x="66.699219"/>
     <use xlink:href="#Arial-BoldMT-72" x="100"/>
     <use xlink:href="#Arial-BoldMT-65" x="138.916016"/>
     <use xlink:href="#Arial-BoldMT-61" x="194.53125"/>
     <use xlink:href="#Arial-BoldMT-6d" x="250.146484"/>
     <use xlink:href="#Arial-BoldMT-6c" x="339.0625"/>
     <use xlink:href="#Arial-BoldMT-69" x="366.845703"/>
     <use xlink:href="#Arial-BoldMT-74" x="394.628906"/>
     <use xlink:href="#Arial-BoldMT-20" x="427.929688"/>
     <use xlink:href="#Arial-BoldMT-44" x="455.712891"/>
     <use xlink:href="#Arial-BoldMT-61" x="527.929688"/>
     <use xlink:href="#Arial-BoldMT-73" x="583.544922"/>
     <use xlink:href="#Arial-BoldMT-68" x="639.160156"/>
     <use xlink:href="#Arial-BoldMT-62" x="700.244141"/>
     <use xlink:href="#Arial-BoldMT-6f" x="761.328125"/>
     <use xlink:href="#Arial-BoldMT-61" x="822.412109"/>
     <use xlink:href="#Arial-BoldMT-72" x="878.027344"/>
     <use xlink:href="#Arial-BoldMT-64" x="916.943359"/>
    </g>
    <!-- (Risk Scores, -->
    <g style="fill: #ffffff" transform="translate(1049.435156 564.454688) scale(0.18 -0.18)">
     <use xlink:href="#Arial-BoldMT-28"/>
     <use xlink:href="#Arial-BoldMT-52" x="33.300781"/>
     <use xlink:href="#Arial-BoldMT-69" x="105.517578"/>
     <use xlink:href="#Arial-BoldMT-73" x="133.300781"/>
     <use xlink:href="#Arial-BoldMT-6b" x="188.916016"/>
     <use xlink:href="#Arial-BoldMT-20" x="244.53125"/>
     <use xlink:href="#Arial-BoldMT-53" x="272.314453"/>
     <use xlink:href="#Arial-BoldMT-63" x="339.013672"/>
     <use xlink:href="#Arial-BoldMT-6f" x="394.628906"/>
     <use xlink:href="#Arial-BoldMT-72" x="455.712891"/>
     <use xlink:href="#Arial-BoldMT-65" x="494.628906"/>
     <use xlink:href="#Arial-BoldMT-73" x="550.244141"/>
     <use xlink:href="#Arial-BoldMT-2c" x="605.859375"/>
    </g>
    <!-- Interventions) -->
    <g style="fill: #ffffff" transform="translate(1046.95875 583.96725) scale(0.18 -0.18)">
     <defs>
      <path id="Arial-BoldMT-76" d="M 1372 0 
L 34 3319 
L 956 3319 
L 1581 1625 
L 1763 1059 
Q 1834 1275 1853 1344 
Q 1897 1484 1947 1625 
L 2578 3319 
L 3481 3319 
L 2163 0 
L 1372 0 
z
" transform="scale(0.015625)"/>
     </defs>
     <use xlink:href="#Arial-BoldMT-49"/>
     <use xlink:href="#Arial-BoldMT-6e" x="27.783203"/>
     <use xlink:href="#Arial-BoldMT-74" x="88.867188"/>
     <use xlink:href="#Arial-BoldMT-65" x="122.167969"/>
     <use xlink:href="#Arial-BoldMT-72" x="177.783203"/>
     <use xlink:href="#Arial-BoldMT-76" x="216.699219"/>
     <use xlink:href="#Arial-BoldMT-65" x="272.314453"/>
     <use xlink:href="#Arial-BoldMT-6e" x="327.929688"/>
     <use xlink:href="#Arial-BoldMT-74" x="389.013672"/>
     <use xlink:href="#Arial-BoldMT-69" x="422.314453"/>
     <use xlink:href="#Arial-BoldMT-6f" x="450.097656"/>
     <use xlink:href="#Arial-BoldMT-6e" x="511.181641"/>
     <use xlink:href="#Arial-BoldMT-73" x="572.265625"/>
     <use xlink:href="#Arial-BoldMT-29" x="627.880859"/>
    </g>
   </g>
   <g id="patch_8">
    <path d="M 363.804148 244.125 
Q 397.26308 244.125 426.249876 244.125 
" style="fill: none; stroke: #003c7d; stroke-width: 4; stroke-linecap: round"/>
    <path d="M 422.249876 242.125 
L 426.249876 244.125 
L 422.249876 246.125 
" style="fill: none; stroke: #003c7d; stroke-width: 4; stroke-linecap: round"/>
   </g>
   <g id="patch_9">
    <path d="M 647.484148 244.125 
Q 680.94308 244.125 709.929876 244.125 
" style="fill: none; stroke: #003c7d; stroke-width: 4; stroke-linecap: round"/>
    <path d="M 705.929876 242.125 
L 709.929876 244.125 
L 705.929876 246.125 
" style="fill: none; stroke: #003c7d; stroke-width: 4; stroke-linecap: round"/>
   </g>
   <g id="patch_10">
    <path d="M 931.164148 244.125 
Q 964.62308 244.125 993.609876 244.125 
" style="fill: none; stroke: #003c7d; stroke-width: 4; stroke-linecap: round"/>
    <path d="M 989.609876 242.125 
L 993.609876 244.125 
L 989.609876 246.125 
" style="fill: none; stroke: #003c7d; stroke-width: 4; stroke-linecap: round"/>
   </g>
   <g id="patch_11">
    <path d="M 1106.46 325.100404 
Q 1106.46 402.07339 1106.46 474.574239 
" style="fill: none; stroke: #003c7d; stroke-width: 4; stroke-linecap: round"/>
    <path d="M 1108.46 470.574239 
L 1106.46 474.574239 
L 1104.46 470.574239 
" style="fill: none; stroke: #003c7d; stroke-width: 4; stroke-linecap: round"/>
   </g>
   <g id="patch_12">
    <path d="M 931.164148 560.025 
Q 964.62308 560.025 993.609876 560.025 
" style="fill: none; stroke: #003c7d; stroke-width: 4; stroke-linecap: round"/>
    <path d="M 989.609876 558.025 
L 993.609876 560.025 
L 989.609876 562.025 
" style="fill: none; stroke: #003c7d; stroke-width: 4; stroke-linecap: round"/>
   </g>
  </g>
 </g>
 <defs>
  <clipPath id="pc99f17d7af">
   <rect x="7.2" y="7.2" width="1418.4" height="842.4"/>
  </clipPath>
 </defs>
</svg>
